<svg width="16" height="16" viewBox="0 0 16 16" fill="none" xmlns="http://www.w3.org/2000/svg">
<path fill-rule="evenodd" clip-rule="evenodd" d="M13.5294 15.3125H13.625C14.557 15.3125 15.3125 14.557 15.3125 13.625V10.655C15.3157 10.1981 15.0423 9.78465 14.6206 9.60875L12.5 8.75938C12.0837 8.58429 11.6031 8.6751 11.2794 8.99L10.0587 10.1994C7.88122 9.81028 6.17835 8.10291 5.79499 5.92438L6.99312 4.715C7.3115 4.39612 7.40889 3.91802 7.24062 3.5L6.38562 1.39625C6.21503 0.96794 5.8004 0.687055 5.33937 0.687501H2.23999C1.79294 0.721948 1.37798 0.932891 1.08671 1.27377C0.795431 1.61464 0.65179 2.05743 0.687491 2.50438C0.906866 5.35063 2.47624 14.6769 13.5294 15.3125ZM1.81249 2.375C1.81249 2.06434 2.06433 1.8125 2.37499 1.8125H5.34499L6.18874 3.93313L4.59124 5.5475L4.62499 5.8175C4.62499 5.86813 5.28874 10.7619 10.1825 11.375L10.4525 11.4088L12.0669 9.80563L14.1875 10.655V13.6588C14.1788 13.808 14.111 13.9477 13.9992 14.0469C13.8873 14.1461 13.7405 14.1967 13.5912 14.1875C3.73062 13.625 2.07124 5.75 1.81249 2.42V2.375Z" fill="#424344"/>
</svg>
