<svg width="32" height="32" viewBox="0 0 32 32" fill="none" xmlns="http://www.w3.org/2000/svg">
<path fill-rule="evenodd" clip-rule="evenodd" d="M25.7 9.3L18.7 2.3C18.5217 2.10248 18.266 1.99286 18 2H8C6.89543 2 6 2.89543 6 4V28C6 29.1046 6.89543 30 8 30H24C25.1046 30 26 29.1046 26 28V10C26.0071 9.73403 25.8975 9.47826 25.7 9.3ZM18 4.4L23.6 10H18V4.4ZM8 4V28H24V12H18C16.8954 12 16 11.1046 16 10V4H8Z" fill="#B58A40"/>
<path d="M14 22.18L11.41 19.59L10 21L14 25L22 17L20.59 15.59L14 22.18Z" fill="#B58A40"/>
</svg>
