<svg width="32" height="32" viewBox="0 0 32 32" fill="none" xmlns="http://www.w3.org/2000/svg">
<path fill-rule="evenodd" clip-rule="evenodd" d="M24.94 9.99998H25C27.7614 9.99998 30 12.2386 30 15C30 17.7614 27.7614 20 25 20V21C24.9876 23.9643 22.8123 26.4752 19.88 26.91C19.4252 28.8722 17.5823 30.1901 15.5785 29.9862C13.5746 29.7824 12.0349 28.1203 11.9846 26.1067C11.9342 24.0932 13.3889 22.3563 15.3801 22.0525C17.3713 21.7488 19.2777 22.973 19.83 24.91C21.6771 24.5182 22.9986 22.8881 23 21V11C23 7.13399 19.866 3.99998 16 3.99998C12.134 3.99998 9 7.13399 9 11V20H7C4.23858 20 2 17.7614 2 15C2 12.2386 4.23858 9.99998 7 9.99998H7.06C7.58672 5.46126 11.4308 2.03748 16 2.03748C20.5692 2.03748 24.4133 5.46126 24.94 9.99998ZM7 12C5.34315 12 4 13.3431 4 15C4 16.6568 5.34315 18 7 18V12ZM16 28C14.8954 28 14 27.1045 14 26C14 24.8954 14.8954 24 16 24C17.1046 24 18 24.8954 18 26C18 27.1045 17.1046 28 16 28ZM28 15C28 13.3431 26.6569 12 25 12V18C26.6569 18 28 16.6568 28 15Z" fill="#B58A40"/>
</svg>
