<svg width="18" height="18" viewBox="0 0 18 18" fill="none" xmlns="http://www.w3.org/2000/svg">
<path fill-rule="evenodd" clip-rule="evenodd" d="M1.125 9C1.125 4.65076 4.65076 1.125 9 1.125C11.0886 1.125 13.0916 1.95469 14.5685 3.43153C16.0453 4.90838 16.875 6.91142 16.875 9C16.875 13.3492 13.3492 16.875 9 16.875C4.65076 16.875 1.125 13.3492 1.125 9ZM2.25 9C2.25 12.7279 5.27208 15.75 9 15.75C10.7902 15.75 12.5071 15.0388 13.773 13.773C15.0388 12.5071 15.75 10.7902 15.75 9C15.75 5.27208 12.7279 2.25 9 2.25C5.27208 2.25 2.25 5.27208 2.25 9Z" fill="#424344"/>
<circle cx="9" cy="13.2188" r="0.84375" fill="#424344"/>
<path d="M9.56251 4.50001H8.71876C8.04697 4.49851 7.40227 4.76471 6.92724 5.23974C6.45221 5.71477 6.18601 6.35947 6.18751 7.03126V7.31251H7.31251V7.03126C7.31251 6.25461 7.94211 5.62501 8.71876 5.62501H9.56251C10.3392 5.62501 10.9688 6.25461 10.9688 7.03126C10.9688 7.80791 10.3392 8.43751 9.56251 8.43751H8.43751V10.9688H9.56251V9.56251C10.9605 9.56251 12.0938 8.42923 12.0938 7.03126C12.0938 5.63329 10.9605 4.50001 9.56251 4.50001Z" fill="#424344"/>
</svg>
