<svg width="24" height="20" viewBox="0 0 24 20" fill="none" xmlns="http://www.w3.org/2000/svg">
<path fill-rule="evenodd" clip-rule="evenodd" d="M12.4575 0.65752C12.1849 0.442122 11.8001 0.442122 11.5275 0.65752L0.75 9.06502L1.68 10.25L3 9.21502V18.5C3 19.3284 3.67157 20 4.5 20H19.5C20.3284 20 21 19.3284 21 18.5V9.22252L22.32 10.25L23.25 9.07252L12.4575 0.65752ZM13.5 12.5V18.5H10.5V12.5H13.5ZM15 12.5V18.5H19.5V8.05252L12 2.20252L4.5 8.04502V18.5H9V12.5C9 11.6716 9.67157 11 10.5 11H13.5C14.3284 11 15 11.6716 15 12.5Z" fill="white"/>
</svg>
