<svg width="18" height="18" viewBox="0 0 18 18" fill="none" xmlns="http://www.w3.org/2000/svg">
<rect x="10.125" y="10.6875" width="3.375" height="1.125" fill="#424344"/>
<rect x="10.125" y="8.4375" width="6.75" height="1.125" fill="#424344"/>
<rect x="10.125" y="6.1875" width="6.75" height="1.125" fill="#424344"/>
<path d="M7.875 11.8125V10.6875H5.0625V9.5625H3.9375V10.6875H1.125V11.8125H5.74582C5.53908 12.6567 5.10848 13.4296 4.49938 14.0496C4.18011 13.7165 3.90645 13.3426 3.68556 12.9375H2.43754C2.72348 13.6239 3.13239 14.2524 3.64416 14.7918C3.04112 15.2213 2.38298 15.5676 1.6875 15.8214L2.08243 16.875C2.94797 16.5598 3.76147 16.1168 4.49595 15.5609C5.23323 16.117 6.04944 16.56 6.91757 16.875L7.3125 15.8214C6.61739 15.5681 5.95951 15.2225 5.35658 14.7937C6.15054 13.9728 6.6845 12.9357 6.89152 11.8125H7.875Z" fill="#424344"/>
<path fill-rule="evenodd" clip-rule="evenodd" d="M7.49981 7.3125H6.28121L5.81259 6.1875H2.8125L2.3436 7.3125H1.125L3.70305 1.125H4.92188L7.49981 7.3125ZM4.31241 2.5875L3.28112 5.0625H5.34375L4.31241 2.5875Z" fill="#424344"/>
</svg>
