<svg width="32" height="32" viewBox="0 0 32 32" fill="none" xmlns="http://www.w3.org/2000/svg">
<path d="M29.2501 6.75997C28.1243 5.63024 26.595 4.99524 25.0001 4.99524C23.4052 4.99524 21.8759 5.63024 20.7501 6.75997L22.1701 8.17997C23.1829 7.16712 24.6592 6.77156 26.0428 7.14229C27.4263 7.51302 28.507 8.59371 28.8778 9.97729C29.2485 11.3609 28.8529 12.8371 27.8401 13.85L19.8401 21.85C18.829 22.8628 17.3544 23.2593 15.9717 22.8902C14.589 22.521 13.5084 21.4422 13.1367 20.0602C12.7651 18.6781 13.159 17.2028 14.1701 16.19L15.5801 14.77L14.1701 13.35L12.7501 14.77C11.6204 15.8958 10.9854 17.4251 10.9854 19.02C10.9854 20.6149 11.6204 22.1442 12.7501 23.27C13.8816 24.387 15.4102 25.0092 17.0001 25C18.6012 25.0066 20.1386 24.3729 21.2701 23.24L29.2701 15.24C31.6042 12.8919 31.5952 9.09699 29.2501 6.75997Z" fill="#B58A40"/>
<path d="M4.18997 24.82C3.43579 24.0693 3.01181 23.0491 3.01181 21.985C3.01181 20.9209 3.43579 19.9007 4.18997 19.15L12.19 11.15C12.9406 10.3958 13.9609 9.97184 15.025 9.97184C16.0891 9.97184 17.1093 10.3958 17.86 11.15C18.6096 11.9068 19.0209 12.935 19 14C19.0061 15.0681 18.5848 16.0943 17.83 16.85L15.71 19L17.13 20.42L19.25 18.3C21.5999 15.95 21.5999 12.14 19.25 9.79001C16.9 7.44003 13.0899 7.44003 10.74 9.79001L2.73997 17.79C1.60717 18.9162 0.970215 20.4476 0.970215 22.045C0.970215 23.6424 1.60717 25.1738 2.73997 26.3C3.87879 27.4085 5.41087 28.0199 6.99997 28C8.60307 28.0015 10.1417 27.3688 11.28 26.24L9.85997 24.82C9.1093 25.5742 8.08906 25.9982 7.02497 25.9982C5.96088 25.9982 4.94064 25.5742 4.18997 24.82Z" fill="#B58A40"/>
</svg>
