<svg width="32" height="32" viewBox="0 0 32 32" fill="none" xmlns="http://www.w3.org/2000/svg">
<path fill-rule="evenodd" clip-rule="evenodd" d="M11 13C11 15.7614 13.2386 18 16 18C18.7601 17.9969 20.9969 15.7601 21 13C21 10.2386 18.7614 8 16 8C13.2386 8 11 10.2386 11 13ZM13 13C13 11.3431 14.3431 10 16 10C17.6561 10.0018 18.9982 11.3439 19 13C19 14.6569 17.6569 16 16 16C14.3431 16 13 14.6569 13 13Z" fill="#B58A40"/>
<path fill-rule="evenodd" clip-rule="evenodd" d="M7.56451 20.0513L16 30L24.439 20.0472C24.4837 19.9942 24.7837 19.5998 24.7837 19.5998L24.7852 19.5973C26.2255 17.6998 27.0036 15.3822 27 13C27 6.92487 22.0751 2 16 2C9.92488 2 5.00001 6.92487 5.00001 13C4.99663 15.3832 5.77521 17.7017 7.21631 19.5998C7.21631 19.5998 7.51661 19.9942 7.56451 20.0513ZM8.86057 18.4581C8.83202 18.4205 8.8128 18.3952 8.81251 18.395C7.63449 16.8433 6.9978 14.9482 7.00001 13C7.00001 8.02944 11.0294 4 16 4C20.9706 4 25 8.02944 25 13C25.0023 14.9471 24.3661 16.8413 23.1888 18.3922C23.1883 18.393 22.9539 18.7027 22.91 18.7579L16 26.9079L9.09911 18.7694C9.06113 18.7221 8.93181 18.5519 8.86057 18.4581Z" fill="#B58A40"/>
</svg>
