<svg width="32" height="32" viewBox="0 0 32 32" fill="none" xmlns="http://www.w3.org/2000/svg">
<rect x="2" y="22" width="28" height="2" fill="#B58A40"/>
<rect x="2" y="26" width="28" height="2" fill="#B58A40"/>
<path d="M24 10C22.8954 10 22 10.8954 22 12C22 13.1046 22.8954 14 24 14C25.1046 14 26 13.1046 26 12C26 10.8954 25.1046 10 24 10Z" fill="#B58A40"/>
<path fill-rule="evenodd" clip-rule="evenodd" d="M12 12C12 14.2091 13.7909 16 16 16C18.2081 15.9975 19.9975 14.2081 20 12C20 9.79086 18.2091 8 16 8C13.7909 8 12 9.79086 12 12ZM14 12C14 10.8954 14.8954 10 16 10C17.1041 10.0011 17.9989 10.8959 18 12C18 13.1046 17.1046 14 16 14C14.8954 14 14 13.1046 14 12Z" fill="#B58A40"/>
<path d="M8 10C6.89543 10 6 10.8954 6 12C6 13.1046 6.89543 14 8 14C9.10457 14 10 13.1046 10 12C10 10.8954 9.10457 10 8 10Z" fill="#B58A40"/>
<path fill-rule="evenodd" clip-rule="evenodd" d="M4 20H28C29.104 19.9985 29.9985 19.104 30 18V6C29.9972 4.89659 29.1034 4.0028 28 4H4C2.89659 4.0028 2.0028 4.89659 2 6V18C2.0028 19.1034 2.89659 19.9972 4 20ZM4 6H28V18H4V6Z" fill="#B58A40"/>
</svg>
