<svg width="32" height="32" viewBox="0 0 32 32" fill="none" xmlns="http://www.w3.org/2000/svg">
<path d="M28 25H20C18.896 24.9985 18.0015 24.104 18 23V20H20V23H28V9H20V12H18V9C18.0013 7.89596 18.896 7.00127 20 7H28C29.104 7.00127 29.9987 7.89596 30 9V23C29.9985 24.104 29.104 24.9985 28 25Z" fill="#B58A40"/>
<rect x="8" y="15" width="4" height="2" fill="#B58A40"/>
<rect x="20" y="15" width="4" height="2" fill="#B58A40"/>
<rect x="14" y="15" width="4" height="2" fill="#B58A40"/>
<path d="M12 25H4C2.89596 24.9987 2.00127 24.104 2 23V9C2.0011 7.89589 2.89589 7.0011 4 7H12C13.1041 7.0011 13.9989 7.89589 14 9V12H12V9H4V23H12V20H14V23C13.9987 24.104 13.104 24.9987 12 25Z" fill="#B58A40"/>
</svg>
