<svg width="32" height="32" viewBox="0 0 32 32" fill="none" xmlns="http://www.w3.org/2000/svg">
<path fill-rule="evenodd" clip-rule="evenodd" d="M27.0002 19.0011C26.9977 16.7924 25.2079 15.0026 22.9993 15.0001H9.00134C7.89669 14.9989 7.00145 14.1038 7.00024 12.9992V9.85805C8.40015 9.49317 9.4934 8.39995 9.85834 7.00005H22.1423C22.6459 8.95036 24.5211 10.222 26.5193 9.96817C28.5175 9.71436 30.0153 8.01432 30.0153 6.00005C30.0153 3.98578 28.5175 2.28574 26.5193 2.03193C24.5211 1.77813 22.6459 3.04975 22.1423 5.00005H9.85834C9.37447 3.1132 7.59935 1.85115 5.65826 2.01395C3.71716 2.17674 2.17705 3.71682 2.01422 5.65791C1.85138 7.599 3.11339 9.37414 5.00023 9.85805V12.9992C5.00288 15.2078 6.79272 16.9975 9.00134 17.0001H22.9993C24.104 17.0012 24.9991 17.8964 25.0002 19.0011V22.0001H22.0002V25.0001H9.85834C9.35477 23.0497 7.47955 21.7781 5.48133 22.0319C3.48312 22.2857 1.98535 23.9858 1.98535 26.0001C1.98535 28.0143 3.48312 29.7144 5.48133 29.9682C7.47955 30.222 9.35477 28.9504 9.85834 27.0001H22.0002V30.0001H30.0002V22.0001H27.0002V19.0011ZM26.0002 4.00005C27.1048 4.00005 28.0002 4.89548 28.0002 6.00005C28.0002 7.10462 27.1048 8.00005 26.0002 8.00005C24.8957 8.00005 24.0002 7.10462 24.0002 6.00005C24.0013 4.89592 24.8961 4.0011 26.0002 4.00005ZM6.00023 4.00005C4.89567 4.00005 4.00023 4.89548 4.00023 6.00005C4.00128 7.10419 4.8961 7.999 6.00023 8.00005C7.1048 8.00005 8.00023 7.10462 8.00023 6.00005C8.00023 4.89548 7.1048 4.00005 6.00023 4.00005ZM6.00023 28.0001C4.89567 28.0001 4.00023 27.1046 4.00023 26.0001C4.00023 24.8955 4.89567 24.0001 6.00023 24.0001C7.1048 24.0001 8.00023 24.8955 8.00023 26.0001C7.99913 27.1042 7.10435 27.9989 6.00023 28.0001ZM28.0002 28.0001V24.0001H24.0002V28.0001H28.0002Z" fill="#B58A40"/>
</svg>
