<svg width="32" height="32" viewBox="0 0 32 32" fill="none" xmlns="http://www.w3.org/2000/svg">
<path d="M18 31H20V29C20.0003 28.4479 20.4479 28.0003 21 28H27C27.5521 28.0003 27.9997 28.4479 28 29V31H30V29C29.9982 27.3439 28.6561 26.0018 27 26H21C19.3439 26.0018 18.0018 27.3439 18 29V31Z" fill="#B58A40"/>
<path fill-rule="evenodd" clip-rule="evenodd" d="M20 21C20 23.2091 21.7909 25 24 25C26.2082 24.9978 27.9978 23.2082 28 21C28 18.7909 26.2091 17 24 17C21.7909 17 20 18.7909 20 21ZM22 21C22 19.8954 22.8954 19 24 19C25.104 19.0015 25.9985 19.896 26 21C26 22.1046 25.1046 23 24 23C22.8954 23 22 22.1046 22 21Z" fill="#B58A40"/>
<path d="M2 31H4V29C4.0005 28.4479 4.44792 28.0005 5 28H11C11.5521 28.0005 11.9995 28.4479 12 29V31H14V29C13.9982 27.3439 12.6561 26.0018 11 26H5C3.3439 26.0018 2.00182 27.3439 2 29L2 31Z" fill="#B58A40"/>
<path fill-rule="evenodd" clip-rule="evenodd" d="M4 21C4 23.2091 5.79086 25 8 25C10.2082 24.9977 11.9977 23.2082 12 21C12 18.7909 10.2091 17 8 17C5.79086 17 4 18.7909 4 21ZM6 21C6 19.8954 6.89543 19 8 19C9.10404 19.0013 9.99873 19.896 10 21C10 22.1046 9.10457 23 8 23C6.89543 23 6 22.1046 6 21Z" fill="#B58A40"/>
<path d="M18 16H20V14C20.0005 13.4479 20.4479 13.0005 21 13H27C27.5521 13.0005 27.9995 13.4479 28 14V16H30V14C29.9982 12.3439 28.6561 11.0018 27 11H21C19.3439 11.0018 18.0018 12.3439 18 14V16Z" fill="#B58A40"/>
<path fill-rule="evenodd" clip-rule="evenodd" d="M20 6C20 8.20914 21.7909 10 24 10C26.2082 9.99768 27.9977 8.20818 28 6C28 3.79086 26.2091 2 24 2C21.7909 2 20 3.79086 20 6ZM22 6C22 4.89543 22.8954 4 24 4C25.104 4.00127 25.9987 4.89596 26 6C26 7.10457 25.1046 8 24 8C22.8954 8 22 7.10457 22 6Z" fill="#B58A40"/>
<path d="M2 16H4V14C4.00072 13.448 4.44801 13.0007 5 13H11C11.552 13.0007 11.9993 13.448 12 14V16H14V14C13.9982 12.3439 12.6561 11.0018 11 11H5C3.3439 11.0018 2.00182 12.3439 2 14L2 16Z" fill="#B58A40"/>
<path fill-rule="evenodd" clip-rule="evenodd" d="M4 6C4 8.20914 5.79086 10 8 10C10.2081 9.99752 11.9975 8.20811 12 6C12 3.79086 10.2091 2 8 2C5.79086 2 4 3.79086 4 6ZM6 6C6 4.89543 6.89543 4 8 4C9.10411 4.0011 9.9989 4.89589 10 6C10 7.10457 9.10457 8 8 8C6.89543 8 6 7.10457 6 6Z" fill="#B58A40"/>
</svg>
