<svg width="18" height="18" viewBox="0 0 18 18" fill="none" xmlns="http://www.w3.org/2000/svg">
<path fill-rule="evenodd" clip-rule="evenodd" d="M12.9375 5.06531H16.3125C16.9338 5.06531 17.4375 4.56163 17.4375 3.94031V1.69031C17.4375 1.06899 16.9338 0.565308 16.3125 0.565308H12.9375C12.3162 0.565308 11.8125 1.06899 11.8125 1.69031V2.25281H6.1875V1.69031C6.1875 1.06899 5.68382 0.565308 5.0625 0.565308H1.6875C1.06618 0.565308 0.5625 1.06899 0.5625 1.69031V3.94031C0.5625 4.56163 1.06618 5.06531 1.6875 5.06531H5.0625C5.68382 5.06531 6.1875 4.56163 6.1875 3.94031V3.37781H8.4375V14.6278C8.43821 15.2488 8.94147 15.7521 9.5625 15.7528H11.8125V16.3153C11.8125 16.9366 12.3162 17.4403 12.9375 17.4403H16.3125C16.9338 17.4403 17.4375 16.9366 17.4375 16.3153V14.0653C17.4375 13.444 16.9338 12.9403 16.3125 12.9403H12.9375C12.3162 12.9403 11.8125 13.444 11.8125 14.0653V14.6278H9.5625V9.56531H11.8125V10.1278C11.8125 10.7491 12.3162 11.2528 12.9375 11.2528H16.3125C16.9338 11.2528 17.4375 10.7491 17.4375 10.1278V7.87781C17.4375 7.25649 16.9338 6.75281 16.3125 6.75281H12.9375C12.3162 6.75281 11.8125 7.25649 11.8125 7.87781V8.44031H9.5625V3.37781H11.8125V3.94031C11.8125 4.56163 12.3162 5.06531 12.9375 5.06531ZM12.9375 1.69031H16.3125V3.94031H12.9375V1.69031ZM1.6875 3.94031H5.0625V1.69031H1.6875V3.94031ZM12.9375 14.0653H16.3125V16.3153H12.9375V14.0653ZM16.3125 7.87781H12.9375V10.1278H16.3125V7.87781Z" fill="#424344"/>
</svg>
