<svg width="32" height="32" viewBox="0 0 32 32" fill="none" xmlns="http://www.w3.org/2000/svg">
<path fill-rule="evenodd" clip-rule="evenodd" d="M5 9C5 5.13401 8.13401 2 12 2C13.8565 2 15.637 2.7375 16.9497 4.05025C18.2625 5.36301 19 7.14348 19 9C19 12.866 15.866 16 12 16C8.13401 16 5 12.866 5 9ZM17 9C17 6.23858 14.7614 4 12 4C9.23858 4 7 6.23858 7 9C7 11.7614 9.23858 14 12 14C14.7614 14 17 11.7614 17 9Z" fill="#B58A40"/>
<path d="M22 30H20V25C20 22.2386 17.7614 20 15 20H9C6.23858 20 4 22.2386 4 25V30H2V25C2 21.134 5.13401 18 9 18H15C18.866 18 22 21.134 22 25V30Z" fill="#B58A40"/>
<path d="M25 16.18L22.41 13.59L21 15L25 19L32 12L30.59 10.59L25 16.18Z" fill="#B58A40"/>
</svg>
