<svg width="18" height="18" viewBox="0 0 18 18" fill="none" xmlns="http://www.w3.org/2000/svg">
<path fill-rule="evenodd" clip-rule="evenodd" d="M9 1.125C4.65076 1.125 1.125 4.65076 1.125 9C1.125 13.3492 4.65076 16.875 9 16.875C13.3492 16.875 16.875 13.3492 16.875 9C16.875 6.91142 16.0453 4.90838 14.5685 3.43153C13.0916 1.95469 11.0886 1.125 9 1.125ZM5.625 14.8387V13.7137C5.5736 12.7254 6.32504 11.8788 7.3125 11.8125H10.6875C11.6773 11.8788 12.4296 12.7289 12.375 13.7194V14.8444C10.2891 16.0595 7.71094 16.0595 5.625 14.8444V14.8387ZM13.5 13.6744V14.0062C15.586 12.1405 16.3043 9.18098 15.3057 6.56655C14.307 3.95212 11.7987 2.2251 9 2.2251C6.20134 2.2251 3.69296 3.95212 2.69434 6.56655C1.69571 9.18098 2.414 12.1405 4.5 14.0062V13.6744C4.46505 12.078 5.71687 10.7485 7.3125 10.6875H10.6875C12.2818 10.7515 13.5319 12.0791 13.5 13.6744Z" fill="white"/>
<path fill-rule="evenodd" clip-rule="evenodd" d="M6.1875 6.75C6.1875 5.1967 7.4467 3.9375 9 3.9375C9.74592 3.9375 10.4613 4.23382 10.9887 4.76126C11.5162 5.28871 11.8125 6.00408 11.8125 6.75C11.8125 8.3033 10.5533 9.5625 9 9.5625C7.4467 9.5625 6.1875 8.3033 6.1875 6.75ZM7.3125 6.75C7.3125 7.68198 8.06802 8.4375 9 8.4375C9.44755 8.4375 9.87678 8.25971 10.1932 7.94324C10.5097 7.62678 10.6875 7.19755 10.6875 6.75C10.6875 5.81802 9.93198 5.0625 9 5.0625C8.06802 5.0625 7.3125 5.81802 7.3125 6.75Z" fill="white"/>
</svg>
