<svg width="32" height="32" viewBox="0 0 32 32" fill="none" xmlns="http://www.w3.org/2000/svg">
<path d="M30 30H28V25C27.9969 22.2399 25.7601 20.0031 23 20V18C26.8642 18.0043 29.9957 21.1358 30 25V30Z" fill="#B58A40"/>
<path d="M22 30H20V25C19.9967 22.2399 17.7601 20.0033 15 20H9C6.23992 20.0033 4.00325 22.2399 4 25V30H2V25C2.00452 21.1359 5.13588 18.0045 9 18H15C18.8641 18.0045 21.9955 21.1359 22 25V30Z" fill="#B58A40"/>
<path d="M20 2V4C22.7614 4 25 6.23858 25 9C25 11.7614 22.7614 14 20 14V16C23.866 16 27 12.866 27 9C27 5.13401 23.866 2 20 2L20 2Z" fill="#B58A40"/>
<path fill-rule="evenodd" clip-rule="evenodd" d="M5 9C5 5.13401 8.13401 2 12 2C13.8565 2 15.637 2.7375 16.9497 4.05025C18.2625 5.36301 19 7.14348 19 9C19 12.866 15.866 16 12 16C8.13401 16 5 12.866 5 9ZM17 9C17 6.23858 14.7614 4 12 4C9.23858 4 7 6.23858 7 9C7 11.7614 9.23858 14 12 14C14.7614 14 17 11.7614 17 9Z" fill="#B58A40"/>
</svg>
